<?xml version="1.0" encoding="UTF-8" standalone="no"?>
<svg width="59.944mm" height="209.973mm"
 viewBox="0 0 708 2480"
 xmlns="http://www.w3.org/2000/svg" xmlns:xlink="http://www.w3.org/1999/xlink"  version="1.2" baseProfile="tiny">
<desc>Generated with Qt</desc>
<defs>
</defs>
<g fill="none" stroke="black" stroke-width="1" fill-rule="evenodd" stroke-linecap="square" stroke-linejoin="bevel" >

<g fill="none" stroke="#000000" stroke-opacity="1" stroke-width="1" stroke-linecap="square" stroke-linejoin="bevel" transform="matrix(1,0,0,1,0,0)"
font-family="MS Shell Dlg 2" font-size="34.375" font-weight="400" font-style="normal" 
>
</g>

<g fill="none" stroke="#000000" stroke-opacity="1" stroke-width="1" stroke-linecap="square" stroke-linejoin="bevel" transform="matrix(11.8,0,0,11.8,0,0)"
font-family="MS Shell Dlg 2" font-size="34.375" font-weight="400" font-style="normal" 
>
</g>

<g fill="#ffffff" fill-opacity="1" stroke="none" transform="matrix(0.999067,0,0,0.999067,0,0)"
font-family="MS Shell Dlg 2" font-size="34.375" font-weight="400" font-style="normal" 
>
<path vector-effect="none" fill-rule="evenodd" d="M-1,-1 L709.661,-1 L709.661,2481.31 L-1,2481.31 L-1,-1"/>
</g>

<g fill="none" stroke="#000000" stroke-opacity="1" stroke-width="1" stroke-linecap="square" stroke-linejoin="bevel" transform="matrix(11.8,0,0,11.8,0,0)"
font-family="MS Shell Dlg 2" font-size="34.375" font-weight="400" font-style="normal" 
>
</g>

<g fill="none" stroke="#000000" stroke-opacity="1" stroke-width="1" stroke-linecap="square" stroke-linejoin="bevel" transform="matrix(11.8,0,0,11.8,0,0)"
font-family="MS Shell Dlg 2" font-size="34.375" font-weight="400" font-style="normal" 
>
</g>

<g fill="none" stroke="#000000" stroke-opacity="1" stroke-width="1" stroke-linecap="square" stroke-linejoin="bevel" transform="matrix(11.8,0,0,11.8,3.25144e-15,0)"
font-family="MS Shell Dlg 2" font-size="34.375" font-weight="400" font-style="normal" 
>
</g>

<g fill="none" stroke="#000000" stroke-opacity="1" stroke-width="1" stroke-linecap="square" stroke-linejoin="bevel" transform="matrix(11.8,0,0,11.8,3.25144e-15,0)"
font-family="MS Shell Dlg 2" font-size="34.375" font-weight="400" font-style="normal" 
>
</g>

<g fill="#ffffff" fill-opacity="1" stroke="none" transform="matrix(11.8,0,0,11.8,3.25144e-15,0)"
font-family="MS Shell Dlg 2" font-size="34.375" font-weight="400" font-style="normal" 
>
<path vector-effect="non-scaling-stroke" fill-rule="evenodd" d="M0,0 L60,0 L60,210 L0,210 L0,0"/>
</g>

<g fill="none" stroke="#000000" stroke-opacity="1" stroke-width="1" stroke-linecap="square" stroke-linejoin="bevel" transform="matrix(11.8,0,0,11.8,3.25144e-15,0)"
font-family="MS Shell Dlg 2" font-size="34.375" font-weight="400" font-style="normal" 
>
</g>

<g fill="#000000" fill-opacity="0" stroke="none" transform="matrix(0.999067,0,0,0.999067,3.25144e-15,0)"
font-family="MS Shell Dlg 2" font-size="34.375" font-weight="400" font-style="normal" 
>
<path vector-effect="non-scaling-stroke" fill-rule="evenodd" d="M0,0 L709,0 L709,2480 L0,2480 L0,0"/>
</g>

<g fill="#000000" fill-opacity="1" stroke="#000000" stroke-opacity="1" stroke-width="3.07087" stroke-linecap="square" stroke-linejoin="bevel" transform="matrix(0.999067,0,0,0.999067,3.25144e-15,0)"
font-family="MS Shell Dlg 2" font-size="34.375" font-weight="400" font-style="normal" 
>
<path vector-effect="none" fill-rule="evenodd" d="M402.255,370.686 L377.493,690.664 L414.129,1164.09 L340.857,1164.09 L329.312,1313.27 L475.197,1313.27 L402.255,370.686 M461.465,1491.7 L374.548,1388.15 L374.548,1838.3 L461.465,1941.85 L461.465,1491.7"/>
</g>

<g fill="none" stroke="#000000" stroke-opacity="1" stroke-width="3.07087" stroke-linecap="square" stroke-linejoin="bevel" transform="matrix(0.999067,0,0,0.999067,3.25144e-15,0)"
font-family="MS Shell Dlg 2" font-size="34.375" font-weight="400" font-style="normal" 
>
<path vector-effect="none" fill-rule="evenodd" d="M268.244,1164.09 L414.129,1164.09"/>
<path vector-effect="none" fill-rule="evenodd" d="M414.129,1164.09 L341.187,221.5"/>
<path vector-effect="none" fill-rule="evenodd" d="M341.187,221.5 L268.244,1164.09"/>
<path vector-effect="none" fill-rule="evenodd" d="M329.312,1313.27 L475.197,1313.27"/>
<path vector-effect="none" fill-rule="evenodd" d="M402.255,370.686 L377.493,690.664"/>
<path vector-effect="none" fill-rule="evenodd" d="M475.197,1313.27 L402.255,370.686"/>
<path vector-effect="none" fill-rule="evenodd" d="M461.465,1941.85 L461.465,1491.7"/>
<path vector-effect="none" fill-rule="evenodd" d="M461.465,1491.7 L374.548,1388.15"/>
<path vector-effect="none" fill-rule="evenodd" d="M374.548,1388.15 L287.63,1491.7"/>
<path vector-effect="none" fill-rule="evenodd" d="M287.63,1491.7 L287.63,1941.85"/>
<path vector-effect="none" fill-rule="evenodd" d="M287.63,1941.85 L374.548,1838.3"/>
<path vector-effect="none" fill-rule="evenodd" d="M374.548,1838.3 L461.465,1941.85"/>
<path vector-effect="none" fill-rule="evenodd" d="M374.548,1388.15 L374.548,1838.3"/>
<path vector-effect="none" fill-rule="evenodd" d="M340.857,1164.09 L329.312,1313.27"/>
<path vector-effect="none" fill-rule="evenodd" d="M288.964,2080.35 L288.964,2227.34"/>
<path vector-effect="none" fill-rule="evenodd" d="M465.803,2080.35 L465.803,2227.34"/>
<path vector-effect="none" fill-rule="evenodd" d="M288.964,2080.35 L465.803,2227.34"/>
</g>

<g fill="none" stroke="#000000" stroke-opacity="1" stroke-width="1" stroke-linecap="square" stroke-linejoin="bevel" transform="matrix(11.8,0,0,11.8,3.25144e-15,0)"
font-family="MS Shell Dlg 2" font-size="34.375" font-weight="400" font-style="normal" 
>
</g>

<g fill="none" stroke="#000000" stroke-opacity="1" stroke-width="1" stroke-linecap="square" stroke-linejoin="bevel" transform="matrix(11.8,0,0,11.8,3.25144e-15,0)"
font-family="MS Shell Dlg 2" font-size="34.375" font-weight="400" font-style="normal" 
>
</g>

<g fill="none" stroke="#000000" stroke-opacity="1" stroke-width="1" stroke-linecap="square" stroke-linejoin="bevel" transform="matrix(11.8,0,0,11.8,3.25144e-15,0)"
font-family="MS Shell Dlg 2" font-size="34.375" font-weight="400" font-style="normal" 
>
</g>

<g fill="none" stroke="#000000" stroke-opacity="1" stroke-width="1" stroke-linecap="square" stroke-linejoin="bevel" transform="matrix(1,0,0,1,0,0)"
font-family="MS Shell Dlg 2" font-size="34.375" font-weight="400" font-style="normal" 
>
</g>

<g fill="none" stroke="#000000" stroke-opacity="1" stroke-width="1" stroke-linecap="square" stroke-linejoin="bevel" transform="matrix(11.8,0,0,11.8,3.25144e-15,0)"
font-family="MS Shell Dlg 2" font-size="34.375" font-weight="400" font-style="normal" 
>
</g>

<g fill="none" stroke="#000000" stroke-opacity="1" stroke-width="1" stroke-linecap="square" stroke-linejoin="bevel" transform="matrix(11.8,0,0,11.8,3.25144e-15,0)"
font-family="MS Shell Dlg 2" font-size="34.375" font-weight="400" font-style="normal" 
>
</g>

<g fill="none" stroke="#000000" stroke-opacity="1" stroke-width="1" stroke-linecap="square" stroke-linejoin="bevel" transform="matrix(11.8,0,0,11.8,0,0)"
font-family="MS Shell Dlg 2" font-size="34.375" font-weight="400" font-style="normal" 
>
</g>

<g fill="none" stroke="#000000" stroke-opacity="1" stroke-width="1" stroke-linecap="square" stroke-linejoin="bevel" transform="matrix(11.8,0,0,11.8,0,0)"
font-family="MS Shell Dlg 2" font-size="34.375" font-weight="400" font-style="normal" 
>
</g>

<g fill="none" stroke="#000000" stroke-opacity="1" stroke-width="1" stroke-linecap="square" stroke-linejoin="bevel" transform="matrix(1,0,0,1,0,0)"
font-family="MS Shell Dlg 2" font-size="34.375" font-weight="400" font-style="normal" 
>
</g>
</g>
</svg>
